{
  "accessors": [
    {
      "bufferView": 2,
      "componentType": 5126,
      "count": 2522,
      "max": [
        89.45293426513672,
        89.14688110351563,
        94.55130004882813
      ],
      "min": [
        -95.41730499267578,
        -95.41724395751953,
        -94.42306518554688
      ],
      "type": "VEC3"
    },
    {
      "bufferView": 2,
      "byteOffset": 30264,
      "componentType": 5126,
      "count": 2522,
      "max": [
        0.944560170173645,
        0.9445592761039734,
        0.9441099166870117
      ],
      "min": [
        -5.7220458984375e-05,
        -5.7209283113479614e-05,
        -7.900502532720566e-05
      ],
      "type": "VEC3"
    },
    {
      "bufferView": 1,
      "componentType": 5126,
      "count": 2522,
      "max": [
        0.9814453125,
        0.98065185546875
      ],
      "min": [
        0.021331787109375,
        0.0166015625
      ],
      "type": "VEC2"
    },
    {
      "bufferView": 0,
      "componentType": 5125,
      "count": 13248,
      "type": "SCALAR"
    }
  ],
  "asset": {
    "extras": {
      "author": "niysi.ambalaj (https://sketchfab.com/niysi.ambalaj)",
      "license": "CC-BY-4.0 (http://creativecommons.org/licenses/by/4.0/)",
      "source": "https://sketchfab.com/3d-models/rocket-league-ball-free-3d-model-336e5b643df64b37b2cbec24e1b99243",
      "title": "Rocket League Ball FREE 3D MODEL"
    },
    "generator": "Sketchfab-10.76.0",
    "version": "2.0"
  },
  "bufferViews": [
    {
      "buffer": 0,
      "byteLength": 52992,
      "name": "floatBufferViews",
      "target": 34963
    },
    {
      "buffer": 0,
      "byteLength": 20176,
      "byteOffset": 52992,
      "byteStride": 8,
      "name": "floatBufferViews",
      "target": 34962
    },
    {
      "buffer": 0,
      "byteLength": 60528,
      "byteOffset": 73168,
      "byteStride": 12,
      "name": "floatBufferViews",
      "target": 34962
    }
  ],
  "buffers": [
    {
      "byteLength": 133696,
      "uri": "scene.bin"
    }
  ],
  "images": [
    {
      "uri": "textures/mat0_baseColor.png"
    }
  ],
  "materials": [
    {
      "doubleSided": true,
      "name": "mat0",
      "pbrMetallicRoughness": {
        "baseColorTexture": {
          "index": 0
        },
        "roughnessFactor": 0.552786
      }
    }
  ],
  "meshes": [
    {
      "name": "Mesh_1021.rip_mat0_0",
      "primitives": [
        {
          "attributes": {
            "NORMAL": 1,
            "POSITION": 0,
            "TEXCOORD_0": 2
          },
          "indices": 3,
          "material": 0,
          "mode": 4
        }
      ]
    }
  ],
  "nodes": [
    {
      "children": [
        1
      ],
      "matrix": [
        1.0,
        0.0,
        0.0,
        0.0,
        0.0,
        2.220446049250313e-16,
        -1.0,
        0.0,
        0.0,
        1.0,
        2.220446049250313e-16,
        0.0,
        0.0,
        0.0,
        0.0,
        1.0
      ],
      "name": "Sketchfab_model"
    },
    {
      "children": [
        2
      ],
      "matrix": [
        1.0,
        0.0,
        0.0,
        0.0,
        0.0,
        0.0,
        1.0,
        0.0,
        0.0,
        -1.0,
        0.0,
        0.0,
        0.0,
        0.0,
        0.0,
        1.0
      ],
      "name": "ball.fbx"
    },
    {
      "children": [
        3
      ],
      "name": "RootNode"
    },
    {
      "children": [
        4
      ],
      "matrix": [
        7.886340373265796e-07,
        -2.512241601943846,
        1.2202061718066182e-14,
        0.0,
        2.5122416019438436,
        7.886340373265796e-07,
        1.0981355920739427e-07,
        0.0,
        -1.0981355920739266e-07,
        -2.2270224087768885e-14,
        2.512241601943967,
        0.0,
        0.0,
        0.0,
        0.0,
        1.0
      ],
      "name": "Mesh_1021.rip"
    },
    {
      "mesh": 0,
      "name": "Mesh_1021.rip_mat0_0"
    }
  ],
  "samplers": [
    {
      "magFilter": 9729,
      "minFilter": 9987,
      "wrapS": 10497,
      "wrapT": 10497
    }
  ],
  "scene": 0,
  "scenes": [
    {
      "name": "Sketchfab_Scene",
      "nodes": [
        0
      ]
    }
  ],
  "textures": [
    {
      "sampler": 0,
      "source": 0
    }
  ]
}
